# xmcd
#
# Track frame offsets:
#	150
#	13635
#	28268
#	43690
#	57658
#	70540
#	87548
#	102160
#	120010
#	134028
#
# Disc length: 2013 seconds
#
# Revision: 0
# Processed by: cddbd v1.4PL0 Copyright (c) Steve Scherf et al.
# Submitted via: dBpowerAMP V4.0
#
DISCID=8607db0a
DTITLE=Conway Twitty - Even Now
DYEAR=1900
DGENRE=
TTITLE0=She's Got A Man On Her Mind
TTITLE1=Even Now
TTITLE2=Someday You'll Love Me
TTITLE3=She's In Love
TTITLE4=You Put It There
TTITLE5=Life's Too Short
TTITLE6=Let The Pretty Lady Dance
TTITLE7=Every Tine I Think It's Over
TTITLE8=It's Such A Heartache
TTITLE9=Who Did They Think He Was
EXTD=
EXTT0=
EXTT1=
EXTT2=
EXTT3=
EXTT4=
EXTT5=
EXTT6=
EXTT7=
EXTT8=
EXTT9=
PLAYORDER=
